<?xml version="1.0" encoding="UTF-8"?>
<!DOCTYPE svg PUBLIC "-//W3C//DTD SVG 1.1//EN" "http://www.w3.org/Graphics/SVG/1.1/DTD/svg11.dtd">
<svg xmlns="http://www.w3.org/2000/svg" version="1.1" width="2560px" height="630px" style="shape-rendering:geometricPrecision; text-rendering:geometricPrecision; image-rendering:optimizeQuality; fill-rule:evenodd; clip-rule:evenodd" xmlns:xlink="http://www.w3.org/1999/xlink">
<g><path style="opacity:0.996" fill="#f05145" d="M 303.5,-0.5 C 374.833,-0.5 446.167,-0.5 517.5,-0.5C 618.81,121.147 720.144,242.814 821.5,364.5C 758.169,365.667 694.836,365.833 631.5,365C 556.312,275.313 481.312,185.479 406.5,95.5C 333.008,185.164 259.674,274.997 186.5,365C 124.168,365.5 61.8342,365.667 -0.5,365.5C -0.5,364.833 -0.5,364.167 -0.5,363.5C 101.307,242.545 202.641,121.212 303.5,-0.5 Z"/></g>
<g><path style="opacity:0.992" fill="#f05245" d="M 903.5,-0.5 C 962.167,-0.5 1020.83,-0.5 1079.5,-0.5C 1079.5,50.8333 1079.5,102.167 1079.5,153.5C 1198.17,153.5 1316.83,153.5 1435.5,153.5C 1435.5,102.167 1435.5,50.8333 1435.5,-0.5C 1492.5,-0.5 1549.5,-0.5 1606.5,-0.5C 1606.5,124.833 1606.5,250.167 1606.5,375.5C 1549.5,375.5 1492.5,375.5 1435.5,375.5C 1435.5,324.833 1435.5,274.167 1435.5,223.5C 1316.83,223.5 1198.17,223.5 1079.5,223.5C 1079.5,274.167 1079.5,324.833 1079.5,375.5C 1020.83,375.5 962.167,375.5 903.5,375.5C 903.5,250.167 903.5,124.833 903.5,-0.5 Z"/></g>
<g><path style="opacity:0.996" fill="#f05246" d="M 1730.5,-0.5 C 1810.5,-0.5 1890.5,-0.5 1970.5,-0.5C 2028.32,99.1392 2086.15,198.806 2144,298.5C 2200.52,198.779 2257.02,99.112 2313.5,-0.5C 2394.17,-0.5 2474.83,-0.5 2555.5,-0.5C 2555.5,124.833 2555.5,250.167 2555.5,375.5C 2505.17,375.5 2454.83,375.5 2404.5,375.5C 2404.67,278.499 2404.5,181.499 2404,84.5C 2345.37,181.298 2286.53,277.965 2227.5,374.5C 2171.17,375.667 2114.84,375.833 2058.5,375C 1998.46,278.416 1938.29,181.916 1878,85.5C 1877.5,182.166 1877.33,278.833 1877.5,375.5C 1828.5,375.5 1779.5,375.5 1730.5,375.5C 1730.5,250.167 1730.5,124.833 1730.5,-0.5 Z"/></g>
<g><path style="opacity:0.971" fill="#323335" d="M 8.5,489.5 C 39.1685,489.333 69.8351,489.5 100.5,490C 113.84,490.448 126.173,494.115 137.5,501C 153.955,516.956 155.788,534.456 143,553.5C 135.331,561.92 125.831,567.087 114.5,569C 109.857,569.83 105.19,570.497 100.5,571C 78.5025,571.5 56.5025,571.667 34.5,571.5C 34.5,590.167 34.5,608.833 34.5,627.5C 25.8333,627.5 17.1667,627.5 8.5,627.5C 8.5,581.5 8.5,535.5 8.5,489.5 Z M 34.5,506.5 C 55.1694,506.333 75.836,506.5 96.5,507C 105.51,506.728 113.344,509.562 120,515.5C 130.139,533.082 125.639,545.249 106.5,552C 102.531,552.853 98.5314,553.519 94.5,554C 74.5028,554.5 54.5028,554.667 34.5,554.5C 34.5,538.5 34.5,522.5 34.5,506.5 Z"/></g>
<g><path style="opacity:0.956" fill="#323435" d="M 167.5,489.5 C 216.833,489.5 266.167,489.5 315.5,489.5C 315.5,495.167 315.5,500.833 315.5,506.5C 295.167,506.5 274.833,506.5 254.5,506.5C 254.5,546.833 254.5,587.167 254.5,627.5C 245.833,627.5 237.167,627.5 228.5,627.5C 228.5,587.167 228.5,546.833 228.5,506.5C 208.167,506.5 187.833,506.5 167.5,506.5C 167.5,500.833 167.5,495.167 167.5,489.5 Z"/></g>
<g><path style="opacity:0.958" fill="#323335" d="M 445.5,489.5 C 455.416,489.181 465.25,489.514 475,490.5C 500.087,535.673 524.921,581.006 549.5,626.5C 539.833,627.833 530.167,627.833 520.5,626.5C 513.883,612.764 506.883,599.264 499.5,586C 473.833,585.333 448.167,585.333 422.5,586C 415.641,599.58 408.974,613.247 402.5,627C 393.506,627.5 384.506,627.666 375.5,627.5C 398.813,581.542 422.146,535.542 445.5,489.5 Z M 459.5,506.5 C 469.993,527.652 480.66,548.819 491.5,570C 471.158,570.833 450.825,570.666 430.5,569.5C 441.549,549.072 451.216,528.072 459.5,506.5 Z"/></g>
<g><path style="opacity:0.985" fill="#323335" d="M 1073.5,489.5 C 1082.17,489.5 1090.83,489.5 1099.5,489.5C 1099.5,508.167 1099.5,526.833 1099.5,545.5C 1131.17,545.5 1162.83,545.5 1194.5,545.5C 1194.5,526.833 1194.5,508.167 1194.5,489.5C 1203.17,489.5 1211.83,489.5 1220.5,489.5C 1220.67,535.168 1220.5,580.835 1220,626.5C 1211.59,627.483 1203.09,627.817 1194.5,627.5C 1194.5,605.833 1194.5,584.167 1194.5,562.5C 1162.83,562.5 1131.17,562.5 1099.5,562.5C 1099.5,584.167 1099.5,605.833 1099.5,627.5C 1090.83,627.5 1082.17,627.5 1073.5,627.5C 1073.5,581.5 1073.5,535.5 1073.5,489.5 Z"/></g>
<g><path style="opacity:0.949" fill="#323335" d="M 1604.5,629.5 C 1598.83,629.5 1593.17,629.5 1587.5,629.5C 1549.76,622.412 1533.93,599.746 1540,561.5C 1545.07,544.762 1555.9,533.595 1572.5,528C 1589.58,522.622 1606.25,523.622 1622.5,531C 1625.78,532.561 1628.62,534.727 1631,537.5C 1631.5,521.503 1631.67,505.503 1631.5,489.5C 1639.5,489.5 1647.5,489.5 1655.5,489.5C 1655.5,535.5 1655.5,581.5 1655.5,627.5C 1648.17,627.5 1640.83,627.5 1633.5,627.5C 1633.67,623.818 1633.5,620.152 1633,616.5C 1624.63,623.45 1615.13,627.783 1604.5,629.5 Z M 1589.5,539.5 C 1617.81,536.966 1632.81,549.799 1634.5,578C 1633.11,600.559 1621.11,612.726 1598.5,614.5C 1575.22,612.551 1563.22,599.884 1562.5,576.5C 1562,557.03 1571,544.697 1589.5,539.5 Z"/></g>
<g><path style="opacity:0.975" fill="#333436" d="M 1910.5,489.5 C 1923.18,489.168 1935.85,489.501 1948.5,490.5C 1966.22,528.597 1983.38,566.93 2000,605.5C 2018.26,567.318 2036.26,528.985 2054,490.5C 2065.42,489.512 2076.92,489.179 2088.5,489.5C 2088.5,535.5 2088.5,581.5 2088.5,627.5C 2080.17,627.5 2071.83,627.5 2063.5,627.5C 2063.67,590.498 2063.5,553.498 2063,516.5C 2045.67,553.167 2028.33,589.833 2011,626.5C 2003,627.833 1995,627.833 1987,626.5C 1970,589.167 1953,551.833 1936,514.5C 1935.5,552.165 1935.33,589.832 1935.5,627.5C 1927.17,627.5 1918.83,627.5 1910.5,627.5C 1910.5,581.5 1910.5,535.5 1910.5,489.5 Z"/></g>
<g><path style="opacity:0.944" fill="#323435" d="M 719.5,492.5 C 720.5,492.5 721.5,492.5 722.5,492.5C 722.5,503.833 722.5,515.167 722.5,526.5C 730.167,526.5 737.833,526.5 745.5,526.5C 745.5,531.167 745.5,535.833 745.5,540.5C 737.833,540.5 730.167,540.5 722.5,540.5C 722.333,561.836 722.5,583.169 723,604.5C 723.346,606.848 724.513,608.681 726.5,610C 732.674,612.531 739.007,613.198 745.5,612C 747.073,617.03 748.073,622.197 748.5,627.5C 737.133,628.942 725.8,628.775 714.5,627C 704.199,624.559 699.032,618.059 699,607.5C 698.5,585.169 698.333,562.836 698.5,540.5C 692.833,540.5 687.167,540.5 681.5,540.5C 681.5,535.833 681.5,531.167 681.5,526.5C 687.167,526.5 692.833,526.5 698.5,526.5C 698.169,518.14 698.502,509.807 699.5,501.5C 706.436,498.865 713.103,495.865 719.5,492.5 Z"/></g>
<g><path style="opacity:0.96" fill="#323436" d="M 2292.5,492.5 C 2293.5,492.5 2294.5,492.5 2295.5,492.5C 2295.5,503.833 2295.5,515.167 2295.5,526.5C 2303.17,526.5 2310.83,526.5 2318.5,526.5C 2318.5,531.167 2318.5,535.833 2318.5,540.5C 2310.83,540.5 2303.17,540.5 2295.5,540.5C 2295.04,562.886 2295.54,585.22 2297,607.5C 2303.8,612.402 2311.3,613.736 2319.5,611.5C 2320.3,616.816 2320.96,622.149 2321.5,627.5C 2311.85,628.492 2302.19,628.658 2292.5,628C 2277.88,625.719 2271.05,617.219 2272,602.5C 2271.5,581.836 2271.33,561.169 2271.5,540.5C 2265.83,540.5 2260.17,540.5 2254.5,540.5C 2254.5,535.833 2254.5,531.167 2254.5,526.5C 2260.17,526.5 2265.83,526.5 2271.5,526.5C 2271.33,518.493 2271.5,510.493 2272,502.5C 2278.97,499.264 2285.8,495.93 2292.5,492.5 Z"/></g>
<g><path style="opacity:0.95" fill="#323335" d="M 603.5,524.5 C 614.973,524.312 626.307,525.479 637.5,528C 652.097,530.931 661.097,539.598 664.5,554C 656.483,554.768 648.483,555.602 640.5,556.5C 638.581,548.003 633.247,542.836 624.5,541C 613.369,539.193 602.369,539.86 591.5,543C 582.689,548.332 582.356,553.998 590.5,560C 608.085,564.32 625.752,568.32 643.5,572C 650.002,573.585 656.002,576.252 661.5,580C 671.174,590.084 672.007,600.917 664,612.5C 653.599,621.612 641.432,626.779 627.5,628C 611.105,629.802 595.105,628.136 579.5,623C 567.949,617.782 560.283,609.115 556.5,597C 564.456,595.506 572.456,594.339 580.5,593.5C 583.192,605.682 590.858,612.515 603.5,614C 612.886,614.853 622.219,614.519 631.5,613C 636.913,611.387 641.08,608.22 644,603.5C 646.051,597.099 643.885,592.599 637.5,590C 617.405,585.762 597.405,581.095 577.5,576C 562.289,570.193 557.122,559.693 562,544.5C 566.3,537.871 572.134,533.037 579.5,530C 587.448,527.314 595.448,525.481 603.5,524.5 Z"/></g>
<g><path style="opacity:0.961" fill="#323435" d="M 808.5,524.5 C 820.085,523.182 831.085,525.016 841.5,530C 838.627,535.58 835.627,541.08 832.5,546.5C 818.815,539.94 806.648,541.94 796,552.5C 794.268,556.363 792.934,560.363 792,564.5C 791.5,585.497 791.333,606.497 791.5,627.5C 783.167,627.5 774.833,627.5 766.5,627.5C 766.5,593.833 766.5,560.167 766.5,526.5C 773.833,526.5 781.167,526.5 788.5,526.5C 788.334,530.846 788.501,535.179 789,539.5C 794.259,532.724 800.759,527.724 808.5,524.5 Z"/></g>
<g><path style="opacity:0.957" fill="#323335" d="M 1321.5,629.5 C 1315.5,629.5 1309.5,629.5 1303.5,629.5C 1285.99,628.329 1271.15,621.329 1259,608.5C 1247.29,590.783 1245.63,572.116 1254,552.5C 1261.98,540.084 1273.14,531.917 1287.5,528C 1304.5,523.334 1321.5,523.334 1338.5,528C 1371.69,540.214 1383.19,563.381 1373,597.5C 1368.17,609 1360,617.167 1348.5,622C 1339.67,625.62 1330.67,628.12 1321.5,629.5 Z M 1309.5,539.5 C 1344.73,541.244 1357.9,559.244 1349,593.5C 1344.01,603.922 1335.84,610.422 1324.5,613C 1307.32,616.832 1292.48,612.665 1280,600.5C 1273.47,589.255 1271.8,577.255 1275,564.5C 1277.58,554.915 1283.42,548.082 1292.5,544C 1298.09,541.688 1303.75,540.188 1309.5,539.5 Z"/></g>
<g><path style="opacity:0.959" fill="#323335" d="M 1459.5,524.5 C 1473.6,523.82 1486.93,526.653 1499.5,533C 1508.08,539.717 1512.24,548.55 1512,559.5C 1512.5,582.164 1512.67,604.831 1512.5,627.5C 1504.5,627.5 1496.5,627.5 1488.5,627.5C 1488.96,603.448 1488.46,579.448 1487,555.5C 1484.12,547.297 1478.29,542.797 1469.5,542C 1456.65,539.797 1444.98,542.464 1434.5,550C 1430.29,553.917 1427.79,558.75 1427,564.5C 1426.5,585.497 1426.33,606.497 1426.5,627.5C 1418.5,627.5 1410.5,627.5 1402.5,627.5C 1402.5,593.833 1402.5,560.167 1402.5,526.5C 1409.83,526.5 1417.17,526.5 1424.5,526.5C 1424.33,530.846 1424.5,535.179 1425,539.5C 1428.89,535.472 1433.39,532.306 1438.5,530C 1445.42,527.354 1452.42,525.521 1459.5,524.5 Z"/></g>
<g><path style="opacity:0.959" fill="#323335" d="M 2188.5,629.5 C 2182.17,629.5 2175.83,629.5 2169.5,629.5C 2151.11,628.386 2135.94,620.719 2124,606.5C 2113.05,587.386 2112.72,568.053 2123,548.5C 2131.22,538.297 2141.72,531.464 2154.5,528C 2175.29,522.487 2195.62,523.82 2215.5,532C 2239.78,545.805 2248.28,566.305 2241,593.5C 2235.06,609.44 2223.89,619.94 2207.5,625C 2201.11,626.84 2194.78,628.34 2188.5,629.5 Z M 2176.5,539.5 C 2210.52,541.512 2223.68,559.178 2216,592.5C 2208.55,607.32 2196.39,614.653 2179.5,614.5C 2147.16,611.478 2134.66,594.144 2142,562.5C 2148.94,547.949 2160.44,540.283 2176.5,539.5 Z"/></g>
<g><path style="opacity:0.958" fill="#323335" d="M 2404.5,629.5 C 2398.17,629.5 2391.83,629.5 2385.5,629.5C 2343.96,624.121 2326.79,600.788 2334,559.5C 2340.73,542.861 2352.89,532.361 2370.5,528C 2395.68,521.272 2419.35,524.605 2441.5,538C 2457,551.844 2462.5,569.011 2458,589.5C 2453.83,606.674 2443.33,618.174 2426.5,624C 2419.18,626.425 2411.84,628.258 2404.5,629.5 Z M 2392.5,539.5 C 2423.07,539.896 2436.9,555.229 2434,585.5C 2431.48,599.02 2423.65,607.853 2410.5,612C 2391.7,617.657 2375.54,613.49 2362,599.5C 2354.67,584.5 2354.67,569.5 2362,554.5C 2370.21,545.31 2380.38,540.31 2392.5,539.5 Z"/></g>
<g><path style="opacity:0.957" fill="#323335" d="M 2526.5,524.5 C 2536.75,523.731 2546.75,524.898 2556.5,528C 2557.43,528.388 2558.09,529.055 2558.5,530C 2556.3,535.58 2553.46,540.747 2550,545.5C 2539.21,541.045 2528.71,541.545 2518.5,547C 2511.81,553.716 2508.65,561.883 2509,571.5C 2508.5,589.83 2508.33,608.164 2508.5,626.5C 2500.58,626.185 2492.75,626.518 2485,627.5C 2484.5,593.835 2484.33,560.168 2484.5,526.5C 2491.83,526.5 2499.17,526.5 2506.5,526.5C 2506.33,530.846 2506.5,535.179 2507,539.5C 2512.03,532.422 2518.53,527.422 2526.5,524.5 Z"/></g>
<g><path style="opacity:0.959" fill="#323335" d="M 907.5,629.5 C 897.5,629.5 887.5,629.5 877.5,629.5C 865.65,627.823 856.15,622.157 849,612.5C 843.469,597.443 847.636,585.943 861.5,578C 866.678,575.607 872.012,573.607 877.5,572C 898.547,569.421 919.547,566.588 940.5,563.5C 941.969,551.805 936.969,544.638 925.5,542C 911.659,538.742 897.992,539.409 884.5,544C 878.464,547.563 874.464,552.729 872.5,559.5C 865.245,558.175 857.912,557.508 850.5,557.5C 851.456,549.921 854.79,543.587 860.5,538.5C 871.825,530.447 884.492,526.281 898.5,526C 913.334,524.759 928.001,525.759 942.5,529C 953.369,531.869 960.202,538.702 963,549.5C 964.189,570.144 964.856,590.81 965,611.5C 965.226,617.52 967.393,622.686 971.5,627C 962.833,627.667 954.167,627.667 945.5,627C 943.792,623.707 942.792,620.207 942.5,616.5C 936.23,619.298 929.896,622.132 923.5,625C 918.044,626.527 912.711,628.027 907.5,629.5 Z M 935.5,578.5 C 936.5,578.5 937.5,578.5 938.5,578.5C 941.168,597.019 933.501,608.519 915.5,613C 904.912,615.848 894.245,616.181 883.5,614C 871.218,610.097 868.218,602.764 874.5,592C 878.682,588.91 883.349,586.91 888.5,586C 904.413,584.181 920.08,581.681 935.5,578.5 Z"/></g>
<g><path style="opacity:0.957" fill="#323335" d="M 1744.5,629.5 C 1734.83,629.5 1725.17,629.5 1715.5,629.5C 1708.54,628.121 1701.88,625.621 1695.5,622C 1685.47,614.919 1681.97,605.419 1685,593.5C 1687.38,588.117 1690.88,583.617 1695.5,580C 1701.86,576.547 1708.53,573.881 1715.5,572C 1736.21,569.363 1756.87,566.53 1777.5,563.5C 1779.37,553.54 1775.7,546.706 1766.5,543C 1752.49,538.43 1738.49,538.43 1724.5,543C 1717.64,546.698 1712.64,552.198 1709.5,559.5C 1702.55,558.405 1695.55,557.572 1688.5,557C 1690.31,545.158 1696.98,536.825 1708.5,532C 1730.8,525.05 1753.47,523.717 1776.5,528C 1790.05,530.882 1798.22,539.049 1801,552.5C 1801.14,573.523 1801.81,594.523 1803,615.5C 1803.9,619.805 1805.74,623.639 1808.5,627C 1800.17,627.667 1791.83,627.667 1783.5,627C 1781.23,623.522 1779.73,619.689 1779,615.5C 1768.39,622.64 1756.89,627.306 1744.5,629.5 Z M 1772.5,578.5 C 1773.83,578.5 1775.17,578.5 1776.5,578.5C 1778.67,596.687 1771,608.187 1753.5,613C 1741.81,616.257 1730.15,616.257 1718.5,613C 1707.5,607.597 1705.83,600.264 1713.5,591C 1717.23,588.754 1721.23,587.087 1725.5,586C 1741.42,584.223 1757.09,581.723 1772.5,578.5 Z"/></g>
</svg>
