<?xml version="1.0" encoding="UTF-8"?>
<!DOCTYPE svg PUBLIC "-//W3C//DTD SVG 1.1//EN" "http://www.w3.org/Graphics/SVG/1.1/DTD/svg11.dtd">
<svg xmlns="http://www.w3.org/2000/svg" version="1.1" width="1280px" height="197px" style="shape-rendering:geometricPrecision; text-rendering:geometricPrecision; image-rendering:optimizeQuality; fill-rule:evenodd; clip-rule:evenodd" xmlns:xlink="http://www.w3.org/1999/xlink">
<g><path style="opacity:0.993" fill="#145298" d="M -0.5,-0.5 C 105.5,-0.5 211.5,-0.5 317.5,-0.5C 317.5,4.16667 317.5,8.83333 317.5,13.5C 230.775,25.7885 151.442,56.6219 79.5,106C 77.2368,107.617 75.2368,109.45 73.5,111.5C 70.5242,114.302 67.3575,116.969 64,119.5C 63.4372,120.725 63.7705,121.725 65,122.5C 94.9157,110.416 125.082,98.9158 155.5,88C 192.742,76.7467 230.076,66.2467 267.5,56.5C 268.833,56.5 270.167,56.5 271.5,56.5C 272.167,56.5 272.5,56.1667 272.5,55.5C 274.099,55.7678 275.432,55.4345 276.5,54.5C 276.833,54.5 277.167,54.5 277.5,54.5C 278.791,54.7373 279.791,54.404 280.5,53.5C 281.5,53.5 282.5,53.5 283.5,53.5C 284.492,53.6716 285.158,53.3382 285.5,52.5C 286.833,52.5 288.167,52.5 289.5,52.5C 290.167,52.5 290.5,52.1667 290.5,51.5C 386.04,34.0994 482.373,25.0994 579.5,24.5C 579.5,25.8333 579.5,27.1667 579.5,28.5C 510.905,34.2754 442.905,44.1087 375.5,58C 356.151,62.7276 337.151,68.5609 318.5,75.5C 317.501,89.4841 317.167,103.484 317.5,117.5C 208,115.416 102,133.416 -0.5,171.5C -0.5,114.167 -0.5,56.8333 -0.5,-0.5 Z M 267.5,56.5 C 230.076,66.2467 192.742,76.7467 155.5,88C 125.082,98.9158 94.9157,110.416 65,122.5C 63.7705,121.725 63.4372,120.725 64,119.5C 67.3575,116.969 70.5242,114.302 73.5,111.5C 112.749,96.2505 152.749,83.0839 193.5,72C 217.985,65.878 242.652,60.7113 267.5,56.5 Z"/></g>
<g><path style="opacity:0.974" fill="#bac1dd" d="M 579.5,24.5 C 482.373,25.0994 386.04,34.0994 290.5,51.5C 289.833,51.5 289.5,51.8333 289.5,52.5C 288.167,52.5 286.833,52.5 285.5,52.5C 284.508,52.3284 283.842,52.6618 283.5,53.5C 282.5,53.5 281.5,53.5 280.5,53.5C 279.209,53.2627 278.209,53.596 277.5,54.5C 277.167,54.5 276.833,54.5 276.5,54.5C 274.901,54.2322 273.568,54.5655 272.5,55.5C 272.5,56.1667 272.167,56.5 271.5,56.5C 270.167,55.1667 268.833,55.1667 267.5,56.5C 242.652,60.7113 217.985,65.878 193.5,72C 152.749,83.0839 112.749,96.2505 73.5,111.5C 75.2368,109.45 77.2368,107.617 79.5,106C 151.442,56.6219 230.775,25.7885 317.5,13.5C 332.07,11.162 346.737,9.99529 361.5,10C 362.833,11 362.833,12 361.5,13C 306.945,19.3878 254.611,33.7212 204.5,56C 203.304,56.6543 203.304,57.1543 204.5,57.5C 301.798,31.505 400.798,18.505 501.5,18.5C 527.516,18.6545 553.516,19.3211 579.5,20.5C 579.5,21.8333 579.5,23.1667 579.5,24.5 Z"/></g>
<g><path style="opacity:0.904" fill="#135198" d="M 1270.5,113.5 C 1273.17,113.5 1275.83,113.5 1278.5,113.5C 1278.5,140.167 1278.5,166.833 1278.5,193.5C 1275.83,193.5 1273.17,193.5 1270.5,193.5C 1270.5,166.833 1270.5,140.167 1270.5,113.5 Z"/></g>
<g><path style="opacity:0.965" fill="#145298" d="M 425.5,114.5 C 434.923,114.154 444.257,114.82 453.5,116.5C 452.979,120.861 452.312,125.194 451.5,129.5C 451,129.833 450.5,130.167 450,130.5C 444.058,127.923 437.892,127.09 431.5,128C 423.948,131.242 422.281,136.242 426.5,143C 433.083,146.194 439.75,149.194 446.5,152C 456.446,158.154 459.946,166.987 457,178.5C 454.928,185.573 450.428,190.406 443.5,193C 431.305,196.561 419.305,196.061 407.5,191.5C 407.978,186.692 408.978,182.025 410.5,177.5C 419.352,182.853 428.352,183.353 437.5,179C 441.943,173.651 441.276,168.985 435.5,165C 428.75,162.194 422.083,159.194 415.5,156C 406.325,147.792 404.158,137.959 409,126.5C 412.88,120.155 418.38,116.155 425.5,114.5 Z"/></g>
<g><path style="opacity:0.965" fill="#145298" d="M 346.5,115.5 C 352.758,115.19 358.924,115.524 365,116.5C 375.037,142.071 385.204,167.571 395.5,193C 389.141,193.831 382.807,193.664 376.5,192.5C 374.629,187.263 372.629,182.096 370.5,177C 360.151,176.168 349.817,176.334 339.5,177.5C 337.777,182.613 335.777,187.613 333.5,192.5C 327.872,193.495 322.206,193.829 316.5,193.5C 326.302,167.429 336.302,141.429 346.5,115.5 Z M 354.5,133.5 C 358.935,143.13 362.601,153.13 365.5,163.5C 358.492,163.666 351.492,163.5 344.5,163C 348.531,153.408 351.864,143.575 354.5,133.5 Z"/></g>
<g><path style="opacity:0.956" fill="#145297" d="M 469.5,115.5 C 489.833,115.5 510.167,115.5 530.5,115.5C 530.5,119.833 530.5,124.167 530.5,128.5C 523.167,128.5 515.833,128.5 508.5,128.5C 508.5,150.167 508.5,171.833 508.5,193.5C 502.833,193.5 497.167,193.5 491.5,193.5C 491.5,171.833 491.5,150.167 491.5,128.5C 484.167,128.5 476.833,128.5 469.5,128.5C 469.5,124.167 469.5,119.833 469.5,115.5 Z"/></g>
<g><path style="opacity:0.967" fill="#145198" d="M 544.5,115.5 C 557.542,115.147 570.542,115.647 583.5,117C 595.908,120.965 600.741,129.465 598,142.5C 595.833,148.667 591.667,152.833 585.5,155C 587.7,157.234 589.533,159.734 591,162.5C 595.037,172.739 599.204,182.905 603.5,193C 597.175,193.5 590.842,193.666 584.5,193.5C 581.298,184.089 577.798,174.755 574,165.5C 570.478,162.406 566.312,161.073 561.5,161.5C 561.5,172.167 561.5,182.833 561.5,193.5C 555.833,193.5 550.167,193.5 544.5,193.5C 544.5,167.5 544.5,141.5 544.5,115.5 Z M 561.5,128.5 C 566.248,128.275 570.915,128.775 575.5,130C 582.588,134.53 583.255,139.863 577.5,146C 572.405,148.177 567.072,149.01 561.5,148.5C 561.5,141.833 561.5,135.167 561.5,128.5 Z"/></g>
<g><path style="opacity:0.967" fill="#145298" d="M 642.5,115.5 C 648.833,115.5 655.167,115.5 661.5,115.5C 671.2,141.432 681.2,167.266 691.5,193C 685.175,193.5 678.842,193.666 672.5,193.5C 670.998,187.827 668.998,182.327 666.5,177C 656.172,176.5 645.839,176.334 635.5,176.5C 633.928,182.146 631.928,187.646 629.5,193C 623.804,193.83 618.137,193.663 612.5,192.5C 622.508,166.805 632.508,141.138 642.5,115.5 Z M 650.5,134.5 C 651.497,134.47 652.164,134.97 652.5,136C 655.661,145.146 658.661,154.313 661.5,163.5C 654.492,163.666 647.492,163.5 640.5,163C 644.332,153.67 647.666,144.17 650.5,134.5 Z"/></g>
<g><path style="opacity:0.843" fill="#135197" d="M 721.5,115.5 C 724.167,115.5 726.833,115.5 729.5,115.5C 729.5,118.833 729.5,122.167 729.5,125.5C 726.833,125.5 724.167,125.5 721.5,125.5C 721.5,122.167 721.5,118.833 721.5,115.5 Z"/></g>
<g><path style="opacity:0.84" fill="#135197" d="M 1076.5,115.5 C 1079.17,115.5 1081.83,115.5 1084.5,115.5C 1084.5,118.833 1084.5,122.167 1084.5,125.5C 1081.83,125.5 1079.17,125.5 1076.5,125.5C 1076.5,122.167 1076.5,118.833 1076.5,115.5 Z"/></g>
<g><path style="opacity:0.933" fill="#145297" d="M 813.5,123.5 C 815.442,128.056 816.108,133.056 815.5,138.5C 819.833,138.5 824.167,138.5 828.5,138.5C 828.5,140.833 828.5,143.167 828.5,145.5C 824.167,145.5 819.833,145.5 815.5,145.5C 815.075,158.894 815.575,172.227 817,185.5C 820.687,188.802 824.854,189.469 829.5,187.5C 829.756,189.792 829.423,191.959 828.5,194C 822.161,196.397 816.327,195.563 811,191.5C 810.333,190.167 809.667,188.833 809,187.5C 808.5,173.504 808.333,159.504 808.5,145.5C 804.833,145.5 801.167,145.5 797.5,145.5C 797.5,143.167 797.5,140.833 797.5,138.5C 801.167,138.5 804.833,138.5 808.5,138.5C 808.174,134.116 808.508,129.783 809.5,125.5C 811.026,125.006 812.359,124.339 813.5,123.5 Z"/></g>
<g><path style="opacity:0.879" fill="#145298" d="M 1050.5,123.5 C 1051.5,123.5 1052.5,123.5 1053.5,123.5C 1053.5,128.5 1053.5,133.5 1053.5,138.5C 1057.5,138.5 1061.5,138.5 1065.5,138.5C 1065.5,140.833 1065.5,143.167 1065.5,145.5C 1061.5,145.5 1057.5,145.5 1053.5,145.5C 1053.33,158.504 1053.5,171.504 1054,184.5C 1054.5,186.333 1055.67,187.5 1057.5,188C 1060.51,188.301 1063.51,188.135 1066.5,187.5C 1066.76,189.792 1066.42,191.959 1065.5,194C 1059.16,196.397 1053.33,195.563 1048,191.5C 1047.03,189.608 1046.36,187.608 1046,185.5C 1045.5,172.171 1045.33,158.837 1045.5,145.5C 1041.83,145.5 1038.17,145.5 1034.5,145.5C 1034.5,143.167 1034.5,140.833 1034.5,138.5C 1038.17,138.5 1041.83,138.5 1045.5,138.5C 1045.17,134.116 1045.51,129.783 1046.5,125.5C 1048.03,125.006 1049.36,124.339 1050.5,123.5 Z"/></g>
<g><path style="opacity:0.967" fill="#145198" d="M 764.5,137.5 C 775.147,135.903 782.647,139.903 787,149.5C 788.373,164.127 788.873,178.793 788.5,193.5C 785.833,193.5 783.167,193.5 780.5,193.5C 780.929,179.441 780.429,165.441 779,151.5C 774.021,144.01 767.521,142.51 759.5,147C 756.533,149.1 754.7,151.934 754,155.5C 752.58,168.106 752.08,180.772 752.5,193.5C 749.833,193.5 747.167,193.5 744.5,193.5C 744.5,175.167 744.5,156.833 744.5,138.5C 746.833,138.5 749.167,138.5 751.5,138.5C 751.336,141.187 751.503,143.854 752,146.5C 754.917,141.637 759.083,138.637 764.5,137.5 Z"/></g>
<g><path style="opacity:0.928" fill="#145198" d="M 853.5,137.5 C 866.583,135.781 875.083,141.114 879,153.5C 880.16,158.434 880.66,163.434 880.5,168.5C 868.167,168.5 855.833,168.5 843.5,168.5C 843.47,180.129 849.136,186.796 860.5,188.5C 865.781,188.178 870.781,186.844 875.5,184.5C 876.48,187.086 876.813,189.753 876.5,192.5C 843.511,200.013 830.345,187.013 837,153.5C 839.778,145.22 845.278,139.887 853.5,137.5 Z M 854.5,144.5 C 862.77,143.381 868.27,146.714 871,154.5C 871.226,157.095 871.726,159.595 872.5,162C 862.839,162.5 853.172,162.666 843.5,162.5C 843.953,154.411 847.62,148.411 854.5,144.5 Z"/></g>
<g><path style="opacity:0.937" fill="#145298" d="M 909.5,137.5 C 917.494,135.87 920.161,138.87 917.5,146.5C 910.333,144.332 905.167,146.666 902,153.5C 901.012,156.424 900.346,159.424 900,162.5C 899.5,172.828 899.334,183.161 899.5,193.5C 897.167,193.5 894.833,193.5 892.5,193.5C 892.751,175.146 892.418,156.813 891.5,138.5C 894.167,138.5 896.833,138.5 899.5,138.5C 899.336,141.187 899.503,143.854 900,146.5C 902.43,142.566 905.597,139.566 909.5,137.5 Z"/></g>
<g><path style="opacity:0.902" fill="#145298" d="M 948.5,137.5 C 958.872,135.611 966.372,139.278 971,148.5C 972.416,163.45 972.916,178.45 972.5,193.5C 969.833,193.5 967.167,193.5 964.5,193.5C 964.667,180.163 964.5,166.829 964,153.5C 962.418,147.367 958.418,144.367 952,144.5C 944.285,144.878 939.619,148.878 938,156.5C 936.63,168.786 936.13,181.12 936.5,193.5C 934.167,193.5 931.833,193.5 929.5,193.5C 929.78,175.139 929.447,156.806 928.5,138.5C 931.167,138.5 933.833,138.5 936.5,138.5C 936.337,140.857 936.503,143.19 937,145.5C 939.937,141.373 943.77,138.706 948.5,137.5 Z"/></g>
<g><path style="opacity:0.926" fill="#145198" d="M 1001.5,137.5 C 1008.2,136.849 1014.53,138.015 1020.5,141C 1023.87,144.443 1025.71,148.61 1026,153.5C 1026.5,166.829 1026.67,180.163 1026.5,193.5C 1024.17,193.5 1021.83,193.5 1019.5,193.5C 1019.66,191.143 1019.5,188.81 1019,186.5C 1014.81,192.097 1009.14,195.097 1002,195.5C 987.36,194.573 981.693,186.906 985,172.5C 988.277,165.602 993.777,161.768 1001.5,161C 1007.17,160.469 1012.84,159.969 1018.5,159.5C 1018.96,146.876 1012.96,142.043 1000.5,145C 997.287,145.606 994.287,146.773 991.5,148.5C 990.353,146.235 990.186,143.902 991,141.5C 994.415,139.644 997.915,138.311 1001.5,137.5 Z M 1008.5,166.5 C 1011.83,166.5 1015.17,166.5 1018.5,166.5C 1020.11,183.4 1012.78,190.234 996.5,187C 990.968,181.036 991.302,175.369 997.5,170C 1001.16,168.407 1004.83,167.241 1008.5,166.5 Z"/></g>
<g><path style="opacity:0.922" fill="#145198" d="M 1116.5,137.5 C 1136.78,136.448 1147.12,146.114 1147.5,166.5C 1145.54,189.977 1133.2,198.811 1110.5,193C 1100.33,187.005 1095.33,178.005 1095.5,166C 1095.63,151.085 1102.63,141.585 1116.5,137.5 Z M 1116.5,144.5 C 1127.69,143.012 1134.86,147.678 1138,158.5C 1140.26,168.547 1138.09,177.38 1131.5,185C 1118.18,191.669 1109.35,187.835 1105,173.5C 1101.93,160.847 1105.76,151.18 1116.5,144.5 Z"/></g>
<g><path style="opacity:0.93" fill="#145297" d="M 1178.5,137.5 C 1184.56,136.838 1190.23,138.004 1195.5,141C 1197.62,142.731 1199.12,144.898 1200,147.5C 1201.45,162.762 1201.95,178.095 1201.5,193.5C 1199.17,193.5 1196.83,193.5 1194.5,193.5C 1194.93,179.774 1194.43,166.107 1193,152.5C 1191.3,147.134 1187.63,144.467 1182,144.5C 1175.15,144.676 1170.48,148.009 1168,154.5C 1166.58,167.439 1166.08,180.439 1166.5,193.5C 1163.83,193.5 1161.17,193.5 1158.5,193.5C 1158.5,175.167 1158.5,156.833 1158.5,138.5C 1160.83,138.5 1163.17,138.5 1165.5,138.5C 1165.34,141.187 1165.5,143.854 1166,146.5C 1168.92,141.637 1173.08,138.637 1178.5,137.5 Z"/></g>
<g><path style="opacity:0.926" fill="#145298" d="M 1231.5,137.5 C 1236.58,137.25 1241.58,137.75 1246.5,139C 1249.67,140.833 1252.17,143.333 1254,146.5C 1255.17,162.131 1256,177.797 1256.5,193.5C 1253.83,193.5 1251.17,193.5 1248.5,193.5C 1248.66,191.473 1248.5,189.473 1248,187.5C 1237.58,197.613 1226.92,197.946 1216,188.5C 1210.35,173.305 1215.52,164.138 1231.5,161C 1237.17,160.469 1242.84,159.969 1248.5,159.5C 1248.43,146.61 1242.1,141.777 1229.5,145C 1226.06,146.09 1222.73,147.256 1219.5,148.5C 1219.23,145.881 1219.56,143.381 1220.5,141C 1224.25,139.691 1227.92,138.525 1231.5,137.5 Z M 1238.5,166.5 C 1241.83,166.5 1245.17,166.5 1248.5,166.5C 1249.15,174.156 1246.82,180.656 1241.5,186C 1235.83,189.333 1230.17,189.333 1224.5,186C 1220.47,180.746 1220.8,175.746 1225.5,171C 1229.71,168.763 1234.05,167.263 1238.5,166.5 Z"/></g>
<g><path style="opacity:0.919" fill="#135197" d="M 721.5,138.5 C 724.167,138.5 726.833,138.5 729.5,138.5C 729.5,156.833 729.5,175.167 729.5,193.5C 726.833,193.5 724.167,193.5 721.5,193.5C 721.5,175.167 721.5,156.833 721.5,138.5 Z"/></g>
<g><path style="opacity:0.928" fill="#135197" d="M 1076.5,138.5 C 1079.17,138.5 1081.83,138.5 1084.5,138.5C 1084.5,156.833 1084.5,175.167 1084.5,193.5C 1081.83,193.5 1079.17,193.5 1076.5,193.5C 1076.5,175.167 1076.5,156.833 1076.5,138.5 Z"/></g>
</svg>
