<?xml version="1.0" encoding="UTF-8"?>
<!DOCTYPE svg PUBLIC "-//W3C//DTD SVG 1.1//EN" "http://www.w3.org/Graphics/SVG/1.1/DTD/svg11.dtd">
<svg xmlns="http://www.w3.org/2000/svg" version="1.1" width="2560px" height="731px" style="shape-rendering:geometricPrecision; text-rendering:geometricPrecision; image-rendering:optimizeQuality; fill-rule:evenodd; clip-rule:evenodd" xmlns:xlink="http://www.w3.org/1999/xlink">
<g><path style="opacity:0.996" fill="#00aa12" d="M 367.5,44.5 C 487.234,43.1793 583.401,89.5127 656,183.5C 717.315,272.687 732.648,369.354 702,473.5C 670.67,564.5 611.503,630.667 524.5,672C 492.531,682.882 464.697,676.382 441,652.5C 423.156,629.43 419.156,604.096 429,576.5C 434.19,563.973 442.357,553.806 453.5,546C 534.623,507.613 573.123,443.446 569,353.5C 558.506,284.325 521.673,234.825 458.5,205C 390.979,177.938 327.312,184.938 267.5,226C 205.721,275.103 182.221,338.603 197,416.5C 208.223,460.024 231.723,495.19 267.5,522C 282.334,531.252 297.334,540.252 312.5,549C 337.047,571.015 344.547,597.848 335,629.5C 324.601,655.231 305.767,670.731 278.5,676C 262.929,678.409 247.929,676.409 233.5,670C 127.036,616.497 64.8697,530.664 47,412.5C 36.5963,285.841 81.763,184.341 182.5,108C 238.079,69.1956 299.746,48.0289 367.5,44.5 Z"/></g>
<g><path style="opacity:0.991" fill="#444444" d="M 2178.5,78.5 C 2204.5,78.3334 2230.5,78.5 2256.5,79C 2257,79.5 2257.5,80 2258,80.5C 2258.33,161.833 2258.67,243.167 2259,324.5C 2306.5,277.667 2354,230.833 2401.5,184C 2436.07,183.171 2470.57,183.338 2505,184.5C 2507,186.5 2507,188.5 2505,190.5C 2459.86,234.639 2415.03,279.139 2370.5,324C 2419.11,390.106 2467.11,456.606 2514.5,523.5C 2514.47,525.029 2513.8,526.196 2512.5,527C 2482.17,527.667 2451.83,527.667 2421.5,527C 2385.47,478.433 2349.8,429.599 2314.5,380.5C 2295.85,398.653 2277.35,416.986 2259,435.5C 2258.67,465.5 2258.33,495.5 2258,525.5C 2231.23,526.828 2204.4,526.828 2177.5,525.5C 2176.33,377.207 2176.17,228.873 2177,80.5C 2177.72,79.9558 2178.22,79.2891 2178.5,78.5 Z"/></g>
<g><path style="opacity:0.992" fill="#444444" d="M 1031.5,177.5 C 1061.55,175.231 1090.22,180.397 1117.5,193C 1125.56,197.727 1133.06,203.227 1140,209.5C 1140.33,202.5 1140.67,195.5 1141,188.5C 1141.27,186.671 1142.11,185.171 1143.5,184C 1168.07,183.828 1192.57,183.328 1217,182.5C 1219.47,183.104 1221.47,184.438 1223,186.5C 1223.67,301.5 1223.67,416.5 1223,531.5C 1218.39,595.264 1187.89,641.764 1131.5,671C 1107.64,681.539 1082.64,686.373 1056.5,685.5C 993.227,687.921 939.394,666.921 895,622.5C 893,619.5 893,616.5 895,613.5C 910.5,598 926,582.5 941.5,567C 944.833,565 948.167,565 951.5,567C 971.665,589.753 996.998,603.086 1027.5,607C 1059.99,611.962 1088.99,604.295 1114.5,584C 1135.83,560.667 1144.33,533.167 1140,501.5C 1117.92,520.761 1092.08,531.261 1062.5,533C 988.32,536.169 932.487,506.003 895,442.5C 870.531,394.392 866.864,344.726 884,293.5C 911.042,226.618 960.208,187.951 1031.5,177.5 Z M 1034.5,259.5 C 1075.25,256.458 1106.42,272.124 1128,306.5C 1144.27,338.322 1144.61,370.322 1129,402.5C 1104.8,441.512 1069.96,457.012 1024.5,449C 984.641,436.475 961.141,409.642 954,368.5C 950.571,318.497 971.737,283.664 1017.5,264C 1023.25,262.314 1028.92,260.814 1034.5,259.5 Z"/></g>
<g><path style="opacity:0.993" fill="#444444" d="M 1941.5,177.5 C 2021.4,174.184 2079.57,207.851 2116,278.5C 2130.04,309.776 2135.04,342.443 2131,376.5C 2130.53,377.931 2129.7,379.097 2128.5,380C 2041.5,380.333 1954.5,380.667 1867.5,381C 1886.26,434.05 1923.59,457.05 1979.5,450C 2005.67,443.415 2026.01,428.748 2040.5,406C 2044.45,405.088 2048.12,405.755 2051.5,408C 2069.93,418.77 2088.1,429.937 2106,441.5C 2107.3,443.365 2107.63,445.365 2107,447.5C 2076.87,496.668 2033.03,524.835 1975.5,532C 1894.75,535.058 1836.58,500.558 1801,428.5C 1775.02,363.056 1782.35,301.723 1823,244.5C 1853.4,206.215 1892.9,183.881 1941.5,177.5 Z M 1950.5,257.5 C 1990.94,256.299 2021.44,272.966 2042,307.5C 2043.74,310.309 2044.91,313.309 2045.5,316.5C 1987.83,316.833 1930.16,316.5 1872.5,315.5C 1888.09,282.05 1914.09,262.716 1950.5,257.5 Z"/></g>
<g><path style="opacity:0.992" fill="#444444" d="M 1425.5,178.5 C 1500.52,175.412 1556.68,206.079 1594,270.5C 1616.38,315.114 1620.71,361.448 1607,409.5C 1591.64,456.185 1562.48,491.352 1519.5,515C 1460.88,542.176 1403.88,539.176 1348.5,506C 1300.52,472.899 1274.02,427.066 1269,368.5C 1266.08,304.186 1289.58,252.019 1339.5,212C 1365.26,193.286 1393.92,182.119 1425.5,178.5 Z M 1435.5,258.5 C 1486.87,259.923 1519.7,285.256 1534,334.5C 1541.56,381.206 1525.39,417.039 1485.5,442C 1442.27,461.419 1404.1,454.253 1371,420.5C 1346.87,390.042 1341.2,356.375 1354,319.5C 1369.68,283.632 1396.85,263.298 1435.5,258.5 Z"/></g>
<g><path style="opacity:0.993" fill="#454545" d="M 1662.5,183.5 C 1687.84,183.333 1713.17,183.5 1738.5,184C 1739.33,184.833 1740.17,185.667 1741,186.5C 1741.67,302.833 1741.67,419.167 1741,535.5C 1735.81,591.971 1709.31,635.137 1661.5,665C 1636.62,678.886 1609.95,685.553 1581.5,685C 1579.67,684.5 1578.5,683.333 1578,681.5C 1577.02,657.079 1577.35,632.746 1579,608.5C 1598.07,605.257 1615.24,597.757 1630.5,586C 1645.86,571.441 1655.03,553.607 1658,532.5C 1659.31,417.184 1659.98,301.85 1660,186.5C 1660.7,185.309 1661.53,184.309 1662.5,183.5 Z"/></g>
<g><path style="opacity:0.995" fill="#00aa12" d="M 373.5,257.5 C 417.841,256.423 453.341,273.423 480,308.5C 508.028,354.173 507.028,399.173 477,443.5C 439.931,486.564 394.098,499.731 339.5,483C 291.194,462.741 265.528,426.407 262.5,374C 265.783,318.723 293.45,281.723 345.5,263C 354.829,260.394 364.162,258.56 373.5,257.5 Z"/></g>
</svg>
