<?xml version="1.0" encoding="UTF-8"?>
<!DOCTYPE svg PUBLIC "-//W3C//DTD SVG 1.1//EN" "http://www.w3.org/Graphics/SVG/1.1/DTD/svg11.dtd">
<svg xmlns="http://www.w3.org/2000/svg" version="1.1" width="1200px" height="279px" style="shape-rendering:geometricPrecision; text-rendering:geometricPrecision; image-rendering:optimizeQuality; fill-rule:evenodd; clip-rule:evenodd" xmlns:xlink="http://www.w3.org/1999/xlink">
<g><path style="opacity:0.986" fill="#ed1a2e" d="M 191.5,-0.5 C 223.5,-0.5 255.5,-0.5 287.5,-0.5C 299.164,0.753759 308.664,6.08709 316,15.5C 333.291,41.9148 350.458,68.4148 367.5,95C 336.833,95.6667 306.167,95.6667 275.5,95C 262.779,94.2119 252.279,89.0453 244,79.5C 226.671,52.6804 209.171,26.0137 191.5,-0.5 Z"/></g>
<g><path style="opacity:0.987" fill="#006bb8" d="M 97.5,278.5 C 64.8333,278.5 32.1667,278.5 -0.5,278.5C -0.5,277.833 -0.5,277.167 -0.5,276.5C 29.8656,229.607 59.6989,182.273 89,134.5C 94.5985,126.567 102.099,121.401 111.5,119C 117.782,117.908 124.116,117.242 130.5,117C 160.167,116.333 189.833,116.333 219.5,117C 211.197,124.964 204.03,133.797 198,143.5C 173.333,183.5 148.667,223.5 124,263.5C 116.782,271.521 107.949,276.521 97.5,278.5 Z"/></g>
<g><path style="opacity:0.985" fill="#acc429" d="M 283.5,116.5 C 311.502,116.333 339.502,116.5 367.5,117C 349.333,144.5 331.167,172 313,199.5C 306.538,206.149 298.704,210.316 289.5,212C 256.833,212.667 224.167,212.667 191.5,212C 209,185.167 226.5,158.333 244,131.5C 248.693,126.468 254.193,122.635 260.5,120C 268.226,118.269 275.892,117.102 283.5,116.5 Z"/></g>
<g><path style="opacity:0.981" fill="#082212" d="M 433.5,116.5 C 450.209,116.092 466.876,116.592 483.5,118C 504.128,124.41 511.961,138.243 507,159.5C 504.202,168.965 498.035,175.132 488.5,178C 478.02,180.81 467.353,181.977 456.5,181.5C 456.5,191.833 456.5,202.167 456.5,212.5C 448.833,212.5 441.167,212.5 433.5,212.5C 433.5,180.5 433.5,148.5 433.5,116.5 Z M 456.5,137.5 C 465.219,136.813 473.386,138.48 481,142.5C 485.354,149.826 483.854,155.659 476.5,160C 469.924,161.377 463.257,161.877 456.5,161.5C 456.5,153.5 456.5,145.5 456.5,137.5 Z"/></g>
<g><path style="opacity:0.973" fill="#072313" d="M 519.5,116.5 C 540.167,116.5 560.833,116.5 581.5,116.5C 581.5,123.167 581.5,129.833 581.5,136.5C 568.833,136.5 556.167,136.5 543.5,136.5C 543.5,141.833 543.5,147.167 543.5,152.5C 555.833,152.5 568.167,152.5 580.5,152.5C 580.5,159.833 580.5,167.167 580.5,174.5C 568.167,174.5 555.833,174.5 543.5,174.5C 543.5,179.833 543.5,185.167 543.5,190.5C 556.167,190.5 568.833,190.5 581.5,190.5C 581.5,197.833 581.5,205.167 581.5,212.5C 560.833,212.5 540.167,212.5 519.5,212.5C 519.5,180.5 519.5,148.5 519.5,116.5 Z"/></g>
<g><path style="opacity:0.969" fill="#082212" d="M 601.5,116.5 C 618.548,116.073 635.548,116.573 652.5,118C 663.027,120.527 669.527,127.027 672,137.5C 677.102,155.463 670.936,167.629 653.5,174C 662.924,186.847 672.591,199.513 682.5,212C 672.833,212.667 663.167,212.667 653.5,212C 644.328,199.335 634.994,186.835 625.5,174.5C 624.501,187.149 624.168,199.816 624.5,212.5C 616.833,212.5 609.167,212.5 601.5,212.5C 601.5,180.5 601.5,148.5 601.5,116.5 Z M 624.5,136.5 C 631.257,136.123 637.924,136.623 644.5,138C 650.573,144.427 650.239,150.76 643.5,157C 637.395,159.248 631.061,160.081 624.5,159.5C 624.5,151.833 624.5,144.167 624.5,136.5 Z"/></g>
<g><path style="opacity:0.978" fill="#082212" d="M 861.5,116.5 C 869.167,116.5 876.833,116.5 884.5,116.5C 889.839,133.685 895.673,150.685 902,167.5C 907.872,150.718 914.038,134.051 920.5,117.5C 928.138,116.503 935.804,116.169 943.5,116.5C 947.406,148.511 951.406,180.511 955.5,212.5C 948.137,212.831 940.803,212.497 933.5,211.5C 931.172,194.875 929.005,178.208 927,161.5C 920.333,178.167 913.667,194.833 907,211.5C 903.591,212.622 900.091,212.789 896.5,212C 889.871,194.569 883.371,177.069 877,159.5C 873.948,177.143 871.115,194.81 868.5,212.5C 861.5,212.5 854.5,212.5 847.5,212.5C 851.887,180.456 856.554,148.456 861.5,116.5 Z"/></g>
<g><path style="opacity:0.982" fill="#082212" d="M 969.5,116.5 C 977.167,116.5 984.833,116.5 992.5,116.5C 992.5,148.5 992.5,180.5 992.5,212.5C 984.833,212.5 977.167,212.5 969.5,212.5C 969.5,180.5 969.5,148.5 969.5,116.5 Z"/></g>
<g><path style="opacity:0.977" fill="#082212" d="M 1199.5,208.5 C 1199.5,209.833 1199.5,211.167 1199.5,212.5C 1191.47,212.831 1183.47,212.498 1175.5,211.5C 1173.4,206.356 1171.4,201.189 1169.5,196C 1160.15,195.168 1150.82,195.335 1141.5,196.5C 1139.26,201.726 1136.93,206.893 1134.5,212C 1126.81,212.831 1119.15,212.665 1111.5,211.5C 1122.57,179.946 1133.24,148.28 1143.5,116.5C 1151.83,116.5 1160.17,116.5 1168.5,116.5C 1178.46,147.377 1188.79,178.044 1199.5,208.5 Z M 1155.5,150.5 C 1158.46,158.975 1161.12,167.641 1163.5,176.5C 1157.83,176.5 1152.17,176.5 1146.5,176.5C 1149.1,167.69 1152.1,159.024 1155.5,150.5 Z"/></g>
<g><path style="opacity:0.971" fill="#082212" d="M 682.5,116.5 C 707.167,116.5 731.833,116.5 756.5,116.5C 756.5,123.833 756.5,131.167 756.5,138.5C 748.167,138.5 739.833,138.5 731.5,138.5C 731.5,163.167 731.5,187.833 731.5,212.5C 723.167,212.5 714.833,212.5 706.5,212.5C 706.5,187.833 706.5,163.167 706.5,138.5C 698.5,138.5 690.5,138.5 682.5,138.5C 682.5,131.167 682.5,123.833 682.5,116.5 Z"/></g>
<g><path style="opacity:0.978" fill="#082212" d="M 782.5,116.5 C 790.833,116.5 799.167,116.5 807.5,116.5C 817.76,148.28 828.427,179.946 839.5,211.5C 831.167,212.833 822.833,212.833 814.5,211.5C 812.397,206.356 810.397,201.189 808.5,196C 799.149,195.168 789.816,195.335 780.5,196.5C 778.26,201.726 775.926,206.893 773.5,212C 765.812,212.831 758.145,212.665 750.5,211.5C 761.573,179.946 772.24,148.28 782.5,116.5 Z M 794.5,150.5 C 797.739,158.89 800.406,167.557 802.5,176.5C 796.833,176.5 791.167,176.5 785.5,176.5C 788.103,167.69 791.103,159.024 794.5,150.5 Z"/></g>
<g><path style="opacity:0.974" fill="#082212" d="M 1012.5,117.5 C 1020.17,117.334 1027.84,117.5 1035.5,118C 1048.88,136.589 1062.38,155.089 1076,173.5C 1076.5,154.836 1076.67,136.17 1076.5,117.5C 1083.83,117.5 1091.17,117.5 1098.5,117.5C 1098.5,149.167 1098.5,180.833 1098.5,212.5C 1090.14,212.831 1081.81,212.498 1073.5,211.5C 1061,193.833 1048.5,176.167 1036,158.5C 1035.5,176.497 1035.33,194.497 1035.5,212.5C 1027.83,212.5 1020.17,212.5 1012.5,212.5C 1012.5,180.833 1012.5,149.167 1012.5,117.5 Z"/></g>
</svg>
